<svg xmlns="http://www.w3.org/2000/svg" xmlns:xlink="http://www.w3.org/1999/xlink" width="500" zoomAndPan="magnify" viewBox="0 0 375 374.999991" height="500" preserveAspectRatio="xMidYMid meet" version="1.0"><defs><clipPath id="b7b8b88e4f"><path d="M 0 49 L 375 49 L 375 326 L 0 326 Z M 0 49 " clip-rule="nonzero"/></clipPath><clipPath id="2bf1ebbbdb"><path d="M 45.976562 50.449219 L 73.746094 95.910156 L 74.15625 96.320312 C 112.210938 120.183594 148.828125 143.839844 186.367188 168.523438 L 187.5 167.1875 L 127.84375 102.902344 L 127.742188 102.800781 L 78.886719 64.539062 L 78.683594 64.4375 L 47.210938 49.113281 Z M 14.914062 240.316406 L 27.769531 241.242188 L 12.652344 221.59375 L 10.902344 222.316406 L 12.445312 235.273438 C 12.445312 235.582031 12.34375 235.996094 11.929688 236.097656 L 0 241.753906 L 0.515625 243.398438 L 14.503906 240.417969 C 14.605469 240.417969 14.707031 240.417969 14.8125 240.417969 Z M 31.472656 255.023438 L 13.679688 259.855469 L 12.960938 260.371094 L 6.582031 269.9375 L 7.714844 271.480469 L 21.289062 267.46875 L 21.804688 267.160156 L 32.5 256.667969 L 31.574219 255.125 Z M 59.65625 242.269531 L 35.175781 238.050781 L 34.351562 239.699219 L 44.226562 248.132812 C 44.535156 248.335938 44.636719 248.75 44.535156 249.160156 L 39.597656 261.398438 L 41.140625 262.222656 L 49.472656 250.496094 C 49.472656 250.394531 49.574219 250.394531 49.679688 250.292969 L 59.757812 242.269531 Z M 82.179688 226.121094 L 26.742188 219.949219 L 26.332031 221.59375 L 62.535156 233.835938 L 63.253906 233.835938 L 82.28125 227.871094 L 82.078125 226.121094 Z M 90.304688 221.902344 L 107.582031 224.0625 C 113.242188 218.097656 117.457031 213.984375 123.527344 208.429688 L 122.703125 206.785156 L 103.777344 209.5625 L 103.367188 209.664062 L 93.699219 214.910156 L 93.183594 215.425781 L 90.304688 221.800781 Z M 62.738281 257.59375 L 85.265625 250.910156 L 85.777344 250.601562 L 103.46875 233.21875 L 102.542969 231.675781 L 73.023438 239.699219 L 72.304688 240.210938 L 61.609375 256.152344 L 62.738281 257.695312 Z M 30.546875 281.558594 L 40.007812 282.792969 C 42.785156 279.808594 44.945312 277.753906 47.929688 274.976562 L 47.105469 273.332031 L 37.851562 274.667969 L 37.4375 274.769531 L 32.605469 277.339844 L 32.089844 277.855469 L 30.445312 281.457031 Z M 49.78125 292.976562 L 20.671875 289.683594 L 20.261719 291.328125 L 39.289062 297.808594 L 40.007812 297.808594 L 49.882812 294.722656 L 49.679688 292.976562 Z M 50.601562 283.203125 L 71.277344 277.339844 L 71.894531 276.929688 L 78.683594 268.289062 L 77.550781 266.953125 L 49.984375 281.660156 Z M 95.242188 292.976562 L 92.566406 294.414062 C 92.464844 294.414062 92.363281 294.519531 92.257812 294.519531 L 70.042969 296.78125 L 69.324219 297.191406 L 44.226562 324.34375 L 45.253906 325.886719 L 87.527344 309.738281 L 87.9375 309.535156 L 117.457031 283.511719 L 116.429688 282.074219 L 96.269531 292.5625 C 96.0625 292.667969 95.859375 292.667969 95.652344 292.667969 C 95.550781 292.871094 95.445312 293.078125 95.242188 293.179688 Z M 95.445312 290.917969 L 129.386719 269.421875 L 128.667969 267.777344 L 101.722656 274.976562 L 101.515625 274.976562 L 83 276.003906 L 70.453125 293.078125 L 94.316406 291.433594 L 94.519531 291.328125 C 94.726562 291.226562 94.933594 291.226562 95.136719 291.328125 C 95.242188 291.125 95.34375 291.019531 95.445312 290.917969 Z M 188.21875 267.570312 L 134.121094 281.148438 L 134.324219 282.792969 L 172.484375 281.660156 L 173.203125 281.457031 L 188.941406 269.214844 L 188.117188 267.570312 Z M 184.105469 225.09375 L 155.203125 221.699219 L 155 221.699219 L 136.792969 215.320312 L 91.230469 258.210938 L 92.054688 259.855469 L 134.738281 249.878906 L 134.941406 249.777344 L 184.414062 226.945312 Z M 158.394531 213.777344 L 185.132812 217.996094 L 185.75 217.996094 L 200.664062 213.160156 L 200.5625 211.308594 L 145.226562 202.15625 L 144.507812 203.800781 L 157.980469 213.46875 L 158.496094 213.675781 Z M 195.316406 255.125 L 196.449219 228.179688 L 145.023438 252.761719 L 145.226562 254.609375 L 170.53125 260.679688 L 171.042969 260.679688 Z M 219.488281 238.875 L 226.171875 215.011719 L 224.628906 214.085938 L 222.984375 215.734375 C 222.882812 215.835938 222.777344 215.835938 222.777344 215.9375 C 222.777344 216.042969 222.675781 216.144531 222.574219 216.144531 L 203.132812 235.789062 L 202.824219 236.507812 L 201.488281 255.742188 L 203.238281 256.460938 L 219.382812 239.390625 L 219.691406 238.875 Z M 256.824219 205.242188 L 237.484375 220.054688 L 237.074219 220.566406 L 225.554688 248.234375 C 225.453125 248.335938 225.453125 248.441406 225.351562 248.542969 L 190.277344 277.136719 L 191.203125 278.679688 L 228.742188 263.148438 L 229.15625 262.839844 L 260.628906 228.589844 Z M 260.320312 180.96875 L 254.664062 157.003906 L 252.8125 156.902344 L 232.136719 213.160156 L 233.578125 214.292969 L 255.28125 199.070312 L 255.691406 198.453125 L 260.320312 181.484375 L 260.320312 180.867188 Z M 307.324219 152.582031 L 375.308594 127.589844 L 374.898438 125.941406 L 301.976562 140.035156 Z M 313.496094 157.003906 L 277.804688 180.660156 L 276.671875 217.894531 L 278.421875 218.304688 L 291.691406 185.597656 C 291.691406 185.496094 291.792969 185.390625 291.792969 185.390625 L 314.625 158.445312 L 313.496094 157.105469 Z M 275.027344 150.628906 L 270.808594 157.519531 C 270.707031 157.722656 270.605469 157.828125 270.398438 157.828125 L 266.285156 159.371094 C 265.976562 159.472656 265.566406 159.472656 265.359375 159.164062 C 265.050781 158.855469 265.050781 158.339844 265.359375 157.929688 C 265.769531 157.519531 266.183594 156.902344 266.492188 156.285156 C 266.695312 155.667969 266.902344 155.050781 266.902344 154.328125 C 266.902344 153.609375 266.800781 152.992188 266.492188 152.375 C 266.285156 151.757812 265.875 151.246094 265.359375 150.730469 C 264.949219 150.320312 264.332031 149.90625 263.714844 149.597656 C 263.097656 149.394531 262.480469 149.1875 261.757812 149.1875 C 261.039062 149.1875 260.421875 149.289062 259.804688 149.597656 C 259.1875 149.804688 258.675781 150.214844 258.160156 150.730469 C 257.75 151.140625 257.335938 151.757812 257.027344 152.375 C 256.824219 152.992188 256.617188 153.609375 256.617188 154.328125 C 256.617188 155.050781 256.71875 155.667969 257.027344 156.285156 C 257.234375 156.902344 257.644531 157.414062 258.160156 157.929688 C 258.570312 158.339844 259.085938 158.753906 259.597656 158.957031 C 260.113281 159.164062 260.730469 159.371094 261.347656 159.371094 C 261.65625 159.371094 261.964844 159.574219 262.066406 159.882812 C 262.273438 160.296875 261.964844 160.808594 261.554688 161.015625 L 260.730469 161.324219 L 265.976562 179.015625 C 274.617188 171.09375 282.742188 163.074219 291.175781 154.84375 L 294.261719 151.757812 L 293.539062 150.011719 L 274.925781 150.421875 Z M 241.085938 131.804688 L 268.136719 139.417969 L 268.652344 139.417969 L 295.289062 134.890625 L 295.390625 133.039062 L 262.582031 125.015625 L 262.066406 125.015625 L 241.292969 129.953125 L 241.292969 131.804688 Z M 213.417969 166.773438 L 252.296875 142.914062 L 233.371094 137.152344 L 220 148.878906 L 219.691406 149.289062 L 211.980469 165.4375 L 213.316406 166.671875 Z M 216.8125 177.058594 C 216.503906 177.265625 216.09375 177.265625 215.785156 177.058594 L 186.675781 154.945312 L 185.441406 156.179688 L 209.820312 185.496094 C 209.820312 185.597656 209.921875 185.597656 209.921875 185.699219 L 222.058594 213.675781 L 247.875 157.722656 L 246.433594 156.488281 L 216.710938 176.957031 Z M 122.292969 87.785156 C 149.648438 112.058594 175.980469 135.300781 206.011719 157.414062 L 207.351562 156.179688 L 196.035156 139.210938 L 195.726562 138.902344 L 102.234375 67.933594 L 101.207031 69.167969 C 108.199219 75.339844 115.296875 81.613281 122.292969 87.785156 Z M 205.292969 203.90625 L 120.132812 164.203125 L 118.898438 165.539062 L 136.382812 193.414062 L 204.777344 205.449219 L 205.292969 203.800781 Z M 121.261719 132.320312 L 86.292969 116.171875 L 85.160156 117.613281 L 111.285156 152.992188 L 111.800781 153.40625 L 204.058594 194.855469 L 204.882812 193.414062 L 121.46875 132.523438 L 121.261719 132.421875 Z M 121.261719 132.320312 " clip-rule="evenodd"/></clipPath><linearGradient x1="38.578302" gradientTransform="matrix(10.285245, 0, 0, 10.285245, 0.0000045, 49.112029)" y1="4.17441" x2="-1.274775" gradientUnits="userSpaceOnUse" y2="24.397879" id="f954addc02"><stop stop-opacity="1" stop-color="rgb(100%, 87.098694%, 34.899902%)" offset="0"/><stop stop-opacity="1" stop-color="rgb(100%, 87.098694%, 34.899902%)" offset="0.125"/><stop stop-opacity="1" stop-color="rgb(100%, 87.098694%, 34.899902%)" offset="0.1875"/><stop stop-opacity="1" stop-color="rgb(100%, 87.098694%, 34.899902%)" offset="0.21875"/><stop stop-opacity="1" stop-color="rgb(100%, 87.098694%, 34.899902%)" offset="0.234375"/><stop stop-opacity="1" stop-color="rgb(100%, 86.997986%, 34.864807%)" offset="0.242187"/><stop stop-opacity="1" stop-color="rgb(100%, 86.405945%, 34.666443%)" offset="0.246094"/><stop stop-opacity="1" stop-color="rgb(100%, 85.913086%, 34.501648%)" offset="0.25"/><stop stop-opacity="1" stop-color="rgb(100%, 85.420227%, 34.336853%)" offset="0.253906"/><stop stop-opacity="1" stop-color="rgb(100%, 84.928894%, 34.172058%)" offset="0.257812"/><stop stop-opacity="1" stop-color="rgb(100%, 84.436035%, 34.007263%)" offset="0.261719"/><stop stop-opacity="1" stop-color="rgb(100%, 83.944702%, 33.842468%)" offset="0.265625"/><stop stop-opacity="1" stop-color="rgb(100%, 83.451843%, 33.677673%)" offset="0.269531"/><stop stop-opacity="1" stop-color="rgb(100%, 82.96051%, 33.512878%)" offset="0.273438"/><stop stop-opacity="1" stop-color="rgb(100%, 82.467651%, 33.348083%)" offset="0.277344"/><stop stop-opacity="1" stop-color="rgb(100%, 81.976318%, 33.183289%)" offset="0.28125"/><stop stop-opacity="1" stop-color="rgb(100%, 81.483459%, 33.018494%)" offset="0.285156"/><stop stop-opacity="1" stop-color="rgb(100%, 80.992126%, 32.853699%)" offset="0.289062"/><stop stop-opacity="1" stop-color="rgb(100%, 80.499268%, 32.688904%)" offset="0.292969"/><stop stop-opacity="1" stop-color="rgb(100%, 80.007935%, 32.524109%)" offset="0.296875"/><stop stop-opacity="1" stop-color="rgb(100%, 79.515076%, 32.357788%)" offset="0.300781"/><stop stop-opacity="1" stop-color="rgb(100%, 79.023743%, 32.192993%)" offset="0.304688"/><stop stop-opacity="1" stop-color="rgb(100%, 78.530884%, 32.028198%)" offset="0.308594"/><stop stop-opacity="1" stop-color="rgb(100%, 78.039551%, 31.863403%)" offset="0.3125"/><stop stop-opacity="1" stop-color="rgb(100%, 77.546692%, 31.698608%)" offset="0.316406"/><stop stop-opacity="1" stop-color="rgb(100%, 77.055359%, 31.533813%)" offset="0.320312"/><stop stop-opacity="1" stop-color="rgb(100%, 76.5625%, 31.369019%)" offset="0.324219"/><stop stop-opacity="1" stop-color="rgb(100%, 76.069641%, 31.204224%)" offset="0.328125"/><stop stop-opacity="1" stop-color="rgb(100%, 75.576782%, 31.039429%)" offset="0.332031"/><stop stop-opacity="1" stop-color="rgb(100%, 75.085449%, 30.874634%)" offset="0.335938"/><stop stop-opacity="1" stop-color="rgb(100%, 74.59259%, 30.709839%)" offset="0.339844"/><stop stop-opacity="1" stop-color="rgb(100%, 74.101257%, 30.545044%)" offset="0.34375"/><stop stop-opacity="1" stop-color="rgb(100%, 73.608398%, 30.380249%)" offset="0.347656"/><stop stop-opacity="1" stop-color="rgb(100%, 73.117065%, 30.215454%)" offset="0.351562"/><stop stop-opacity="1" stop-color="rgb(100%, 72.624207%, 30.049133%)" offset="0.355469"/><stop stop-opacity="1" stop-color="rgb(100%, 72.132874%, 29.884338%)" offset="0.359375"/><stop stop-opacity="1" stop-color="rgb(100%, 71.640015%, 29.719543%)" offset="0.363281"/><stop stop-opacity="1" stop-color="rgb(100%, 71.148682%, 29.554749%)" offset="0.367187"/><stop stop-opacity="1" stop-color="rgb(100%, 70.655823%, 29.389954%)" offset="0.371094"/><stop stop-opacity="1" stop-color="rgb(100%, 70.16449%, 29.225159%)" offset="0.375"/><stop stop-opacity="1" stop-color="rgb(100%, 69.671631%, 29.060364%)" offset="0.378906"/><stop stop-opacity="1" stop-color="rgb(100%, 69.180298%, 28.895569%)" offset="0.382812"/><stop stop-opacity="1" stop-color="rgb(100%, 68.687439%, 28.730774%)" offset="0.386719"/><stop stop-opacity="1" stop-color="rgb(100%, 68.196106%, 28.565979%)" offset="0.390625"/><stop stop-opacity="1" stop-color="rgb(100%, 67.703247%, 28.401184%)" offset="0.394531"/><stop stop-opacity="1" stop-color="rgb(100%, 67.211914%, 28.236389%)" offset="0.398438"/><stop stop-opacity="1" stop-color="rgb(100%, 66.719055%, 28.071594%)" offset="0.402344"/><stop stop-opacity="1" stop-color="rgb(100%, 66.227722%, 27.906799%)" offset="0.40625"/><stop stop-opacity="1" stop-color="rgb(100%, 65.734863%, 27.742004%)" offset="0.410156"/><stop stop-opacity="1" stop-color="rgb(100%, 65.242004%, 27.577209%)" offset="0.414062"/><stop stop-opacity="1" stop-color="rgb(100%, 64.749146%, 27.410889%)" offset="0.417969"/><stop stop-opacity="1" stop-color="rgb(100%, 64.257812%, 27.246094%)" offset="0.421875"/><stop stop-opacity="1" stop-color="rgb(100%, 63.764954%, 27.081299%)" offset="0.425781"/><stop stop-opacity="1" stop-color="rgb(100%, 63.273621%, 26.916504%)" offset="0.429688"/><stop stop-opacity="1" stop-color="rgb(100%, 62.780762%, 26.751709%)" offset="0.433594"/><stop stop-opacity="1" stop-color="rgb(100%, 62.289429%, 26.586914%)" offset="0.4375"/><stop stop-opacity="1" stop-color="rgb(100%, 61.79657%, 26.422119%)" offset="0.441406"/><stop stop-opacity="1" stop-color="rgb(100%, 61.305237%, 26.257324%)" offset="0.445312"/><stop stop-opacity="1" stop-color="rgb(100%, 60.812378%, 26.092529%)" offset="0.449219"/><stop stop-opacity="1" stop-color="rgb(100%, 60.321045%, 25.927734%)" offset="0.453125"/><stop stop-opacity="1" stop-color="rgb(100%, 59.828186%, 25.762939%)" offset="0.457031"/><stop stop-opacity="1" stop-color="rgb(100%, 59.336853%, 25.598145%)" offset="0.460938"/><stop stop-opacity="1" stop-color="rgb(100%, 58.843994%, 25.43335%)" offset="0.464844"/><stop stop-opacity="1" stop-color="rgb(100%, 58.352661%, 25.268555%)" offset="0.46875"/><stop stop-opacity="1" stop-color="rgb(100%, 57.859802%, 25.10376%)" offset="0.472656"/><stop stop-opacity="1" stop-color="rgb(100%, 57.368469%, 24.938965%)" offset="0.476562"/><stop stop-opacity="1" stop-color="rgb(100%, 56.87561%, 24.772644%)" offset="0.480469"/><stop stop-opacity="1" stop-color="rgb(100%, 56.384277%, 24.607849%)" offset="0.484375"/><stop stop-opacity="1" stop-color="rgb(100%, 55.891418%, 24.443054%)" offset="0.488281"/><stop stop-opacity="1" stop-color="rgb(100%, 55.39856%, 24.278259%)" offset="0.492188"/><stop stop-opacity="1" stop-color="rgb(100%, 54.905701%, 24.113464%)" offset="0.496094"/><stop stop-opacity="1" stop-color="rgb(100%, 54.414368%, 23.948669%)" offset="0.5"/><stop stop-opacity="1" stop-color="rgb(100%, 53.921509%, 23.783875%)" offset="0.503906"/><stop stop-opacity="1" stop-color="rgb(100%, 53.430176%, 23.61908%)" offset="0.507812"/><stop stop-opacity="1" stop-color="rgb(100%, 52.937317%, 23.454285%)" offset="0.511719"/><stop stop-opacity="1" stop-color="rgb(100%, 52.445984%, 23.28949%)" offset="0.515625"/><stop stop-opacity="1" stop-color="rgb(100%, 51.953125%, 23.124695%)" offset="0.519531"/><stop stop-opacity="1" stop-color="rgb(100%, 51.461792%, 22.9599%)" offset="0.523438"/><stop stop-opacity="1" stop-color="rgb(100%, 50.968933%, 22.795105%)" offset="0.527344"/><stop stop-opacity="1" stop-color="rgb(100%, 50.4776%, 22.63031%)" offset="0.53125"/><stop stop-opacity="1" stop-color="rgb(100%, 49.984741%, 22.465515%)" offset="0.535156"/><stop stop-opacity="1" stop-color="rgb(100%, 49.493408%, 22.30072%)" offset="0.539062"/><stop stop-opacity="1" stop-color="rgb(100%, 49.000549%, 22.134399%)" offset="0.542969"/><stop stop-opacity="1" stop-color="rgb(100%, 48.509216%, 21.969604%)" offset="0.546875"/><stop stop-opacity="1" stop-color="rgb(100%, 48.016357%, 21.80481%)" offset="0.550781"/><stop stop-opacity="1" stop-color="rgb(100%, 47.525024%, 21.640015%)" offset="0.554688"/><stop stop-opacity="1" stop-color="rgb(100%, 47.032166%, 21.47522%)" offset="0.558594"/><stop stop-opacity="1" stop-color="rgb(100%, 46.540833%, 21.310425%)" offset="0.5625"/><stop stop-opacity="1" stop-color="rgb(100%, 46.047974%, 21.14563%)" offset="0.566406"/><stop stop-opacity="1" stop-color="rgb(100%, 45.555115%, 20.980835%)" offset="0.570313"/><stop stop-opacity="1" stop-color="rgb(100%, 45.062256%, 20.81604%)" offset="0.574219"/><stop stop-opacity="1" stop-color="rgb(100%, 44.570923%, 20.651245%)" offset="0.578125"/><stop stop-opacity="1" stop-color="rgb(100%, 44.078064%, 20.48645%)" offset="0.582031"/><stop stop-opacity="1" stop-color="rgb(100%, 43.586731%, 20.321655%)" offset="0.585938"/><stop stop-opacity="1" stop-color="rgb(100%, 43.093872%, 20.15686%)" offset="0.589844"/><stop stop-opacity="1" stop-color="rgb(100%, 42.602539%, 19.992065%)" offset="0.59375"/><stop stop-opacity="1" stop-color="rgb(100%, 42.10968%, 19.827271%)" offset="0.597656"/><stop stop-opacity="1" stop-color="rgb(100%, 41.618347%, 19.662476%)" offset="0.601562"/><stop stop-opacity="1" stop-color="rgb(100%, 41.125488%, 19.496155%)" offset="0.605469"/><stop stop-opacity="1" stop-color="rgb(100%, 40.634155%, 19.33136%)" offset="0.609375"/><stop stop-opacity="1" stop-color="rgb(100%, 40.141296%, 19.166565%)" offset="0.613281"/><stop stop-opacity="1" stop-color="rgb(100%, 39.649963%, 19.00177%)" offset="0.617188"/><stop stop-opacity="1" stop-color="rgb(100%, 39.157104%, 18.836975%)" offset="0.621094"/><stop stop-opacity="1" stop-color="rgb(100%, 38.665771%, 18.67218%)" offset="0.625"/><stop stop-opacity="1" stop-color="rgb(100%, 38.172913%, 18.507385%)" offset="0.628906"/><stop stop-opacity="1" stop-color="rgb(100%, 37.68158%, 18.34259%)" offset="0.632812"/><stop stop-opacity="1" stop-color="rgb(100%, 37.188721%, 18.177795%)" offset="0.636719"/><stop stop-opacity="1" stop-color="rgb(100%, 36.697388%, 18.013%)" offset="0.640625"/><stop stop-opacity="1" stop-color="rgb(100%, 36.204529%, 17.848206%)" offset="0.644531"/><stop stop-opacity="1" stop-color="rgb(100%, 35.713196%, 17.683411%)" offset="0.648438"/><stop stop-opacity="1" stop-color="rgb(100%, 35.220337%, 17.518616%)" offset="0.652344"/><stop stop-opacity="1" stop-color="rgb(100%, 34.727478%, 17.353821%)" offset="0.65625"/><stop stop-opacity="1" stop-color="rgb(100%, 34.234619%, 17.1875%)" offset="0.660156"/><stop stop-opacity="1" stop-color="rgb(100%, 33.743286%, 17.022705%)" offset="0.664062"/><stop stop-opacity="1" stop-color="rgb(100%, 33.250427%, 16.85791%)" offset="0.667969"/><stop stop-opacity="1" stop-color="rgb(100%, 32.759094%, 16.693115%)" offset="0.671875"/><stop stop-opacity="1" stop-color="rgb(100%, 32.266235%, 16.52832%)" offset="0.675781"/><stop stop-opacity="1" stop-color="rgb(100%, 31.774902%, 16.363525%)" offset="0.679688"/><stop stop-opacity="1" stop-color="rgb(100%, 31.282043%, 16.19873%)" offset="0.683594"/><stop stop-opacity="1" stop-color="rgb(100%, 30.79071%, 16.033936%)" offset="0.6875"/><stop stop-opacity="1" stop-color="rgb(100%, 30.297852%, 15.869141%)" offset="0.691406"/><stop stop-opacity="1" stop-color="rgb(100%, 29.806519%, 15.704346%)" offset="0.695312"/><stop stop-opacity="1" stop-color="rgb(100%, 29.31366%, 15.539551%)" offset="0.699219"/><stop stop-opacity="1" stop-color="rgb(100%, 28.822327%, 15.374756%)" offset="0.703125"/><stop stop-opacity="1" stop-color="rgb(100%, 28.329468%, 15.209961%)" offset="0.707031"/><stop stop-opacity="1" stop-color="rgb(100%, 27.838135%, 15.045166%)" offset="0.710938"/><stop stop-opacity="1" stop-color="rgb(100%, 27.345276%, 14.880371%)" offset="0.714844"/><stop stop-opacity="1" stop-color="rgb(100%, 26.853943%, 14.715576%)" offset="0.71875"/><stop stop-opacity="1" stop-color="rgb(100%, 26.361084%, 14.549255%)" offset="0.722656"/><stop stop-opacity="1" stop-color="rgb(100%, 25.869751%, 14.38446%)" offset="0.726562"/><stop stop-opacity="1" stop-color="rgb(100%, 25.376892%, 14.219666%)" offset="0.730469"/><stop stop-opacity="1" stop-color="rgb(100%, 24.884033%, 14.054871%)" offset="0.734375"/><stop stop-opacity="1" stop-color="rgb(100%, 24.391174%, 13.890076%)" offset="0.738281"/><stop stop-opacity="1" stop-color="rgb(100%, 23.899841%, 13.725281%)" offset="0.742188"/><stop stop-opacity="1" stop-color="rgb(100%, 23.406982%, 13.560486%)" offset="0.746094"/><stop stop-opacity="1" stop-color="rgb(100%, 22.915649%, 13.395691%)" offset="0.75"/><stop stop-opacity="1" stop-color="rgb(100%, 22.422791%, 13.230896%)" offset="0.753906"/><stop stop-opacity="1" stop-color="rgb(100%, 21.931458%, 13.066101%)" offset="0.757812"/><stop stop-opacity="1" stop-color="rgb(100%, 21.438599%, 12.901306%)" offset="0.761719"/><stop stop-opacity="1" stop-color="rgb(100%, 20.947266%, 12.736511%)" offset="0.765625"/><stop stop-opacity="1" stop-color="rgb(100%, 20.454407%, 12.571716%)" offset="0.769531"/><stop stop-opacity="1" stop-color="rgb(100%, 19.963074%, 12.406921%)" offset="0.773438"/><stop stop-opacity="1" stop-color="rgb(100%, 19.470215%, 12.242126%)" offset="0.777344"/><stop stop-opacity="1" stop-color="rgb(100%, 18.978882%, 12.077332%)" offset="0.78125"/><stop stop-opacity="1" stop-color="rgb(100%, 18.486023%, 11.911011%)" offset="0.785156"/><stop stop-opacity="1" stop-color="rgb(100%, 17.99469%, 11.746216%)" offset="0.789062"/><stop stop-opacity="1" stop-color="rgb(100%, 17.501831%, 11.581421%)" offset="0.792969"/><stop stop-opacity="1" stop-color="rgb(100%, 17.010498%, 11.416626%)" offset="0.796875"/><stop stop-opacity="1" stop-color="rgb(100%, 16.517639%, 11.251831%)" offset="0.800781"/><stop stop-opacity="1" stop-color="rgb(100%, 16.026306%, 11.087036%)" offset="0.804688"/><stop stop-opacity="1" stop-color="rgb(100%, 15.533447%, 10.922241%)" offset="0.808594"/><stop stop-opacity="1" stop-color="rgb(100%, 15.040588%, 10.757446%)" offset="0.8125"/><stop stop-opacity="1" stop-color="rgb(100%, 14.547729%, 10.592651%)" offset="0.816406"/><stop stop-opacity="1" stop-color="rgb(100%, 14.056396%, 10.427856%)" offset="0.820312"/><stop stop-opacity="1" stop-color="rgb(100%, 13.563538%, 10.263062%)" offset="0.824219"/><stop stop-opacity="1" stop-color="rgb(100%, 13.072205%, 10.098267%)" offset="0.828125"/><stop stop-opacity="1" stop-color="rgb(100%, 12.579346%, 9.933472%)" offset="0.832031"/><stop stop-opacity="1" stop-color="rgb(100%, 12.088013%, 9.768677%)" offset="0.835938"/><stop stop-opacity="1" stop-color="rgb(100%, 11.595154%, 9.603882%)" offset="0.839844"/><stop stop-opacity="1" stop-color="rgb(100%, 11.103821%, 9.439087%)" offset="0.84375"/><stop stop-opacity="1" stop-color="rgb(100%, 10.610962%, 9.272766%)" offset="0.847656"/><stop stop-opacity="1" stop-color="rgb(100%, 10.119629%, 9.107971%)" offset="0.851562"/><stop stop-opacity="1" stop-color="rgb(100%, 9.62677%, 8.943176%)" offset="0.855469"/><stop stop-opacity="1" stop-color="rgb(100%, 9.135437%, 8.778381%)" offset="0.859375"/><stop stop-opacity="1" stop-color="rgb(100%, 8.866882%, 8.688354%)" offset="0.863281"/><stop stop-opacity="1" stop-color="rgb(100%, 8.599854%, 8.599854%)" offset="0.867188"/><stop stop-opacity="1" stop-color="rgb(100%, 8.599854%, 8.599854%)" offset="0.875"/><stop stop-opacity="1" stop-color="rgb(100%, 8.599854%, 8.599854%)" offset="1"/></linearGradient></defs><g clip-path="url(#b7b8b88e4f)"><g clip-path="url(#2bf1ebbbdb)"><path fill="url(#f954addc02)" d="M 0 49.113281 L 0 325.886719 L 375 325.886719 L 375 49.113281 Z M 0 49.113281 " fill-rule="nonzero"/></g></g></svg>